# xmcd
#
# Track frame offsets:
#	150
#	2194
#	10794
#	19374
#	30230
#	34730
#	43930
#	50905
#	61142
#	72676
#	78514
#	88599
#	96609
#	104784
#	110088
#	119576
#	131276
#	140437
#	154477
#	164313
#	174489
#	182493
#
# Disc length: 2510 seconds
#
# Revision: 1
# Processed by: cddbd v1.5.2PL0 Copyright (c) Steve Scherf et al.
# Submitted via: audiograbber 1.83.01
#
DISCID=3c09cc16
DTITLE=Dick Sweat - Dick Sweat
DYEAR=2008
DGENRE=Death Metal
TTITLE0=Jizz Jazz
TTITLE1=Brute Force Fisting
TTITLE2=Post Ejaculation Clusterfuck
TTITLE3=Sperm Cocktail Mutant
TTITLE4=Hitchicking Rape Prophecies
TTITLE5=Pan-Anal Blitzkrieg
TTITLE6=Bull Cunt
TTITLE7=Fake Scubadiving Execution
TTITLE8=Napal Fart Immolation
TTITLE9=Diarrhée-Pier
TTITLE10=The Zoophiliac Messiah
TTITLE11=Newborn Baby Fuck
TTITLE12=Golden Shower Rain Holocaust
TTITLE13=Shit Cops
TTITLE14=Brun à lèvres
TTITLE15=Morbid Fecal Attack
TTITLE16=Triumph in Herpesia
TTITLE17=Spitting Whore Apoplexy
TTITLE18=Dicksnot Therapy
TTITLE19=The Scrotumless Prophet
TTITLE20=Bite it You Scum
TTITLE21=[bonus track]
EXTD=
EXTT0=
EXTT1=
EXTT2=
EXTT3=
EXTT4=
EXTT5=
EXTT6=
EXTT7=
EXTT8=
EXTT9=
EXTT10=
EXTT11=
EXTT12=
EXTT13=
EXTT14=
EXTT15=
EXTT16=
EXTT17=
EXTT18=
EXTT19=
EXTT20=
EXTT21=
PLAYORDER=
